<?xml version="1.0" encoding="utf-8"?>
<!-- Generator: Adobe Illustrator 23.0.1, SVG Export Plug-In . SVG Version: 6.00 Build 0)  -->
<svg version="1.1" id="Layer_1" xmlns="http://www.w3.org/2000/svg" xmlns:xlink="http://www.w3.org/1999/xlink" x="0px" y="0px"
	 viewBox="0 0 126 116" style="enable-background:new 0 0 126 116;" xml:space="preserve">
<style type="text/css">
	.st0{fill:none;}
	.st1{fill:#0073B9;}
	.st2{fill:#53B6E6;}
	.st3{fill:#AAE1FA;}
	.st4{fill:#78D2F5;}
	.st5{fill:#2991D2;}
</style>
<g>
	<path class="st0" d="M0.2,1h186v175.7H0.2V1z"/>
	<g>
		<path class="st1" d="M75.8,0.4l-12.1,23l6.1,11.7L88.1,0.4H75.8z"/>
		<path class="st2" d="M39.4,0.4l18.2,34.7l6.1-11.7l-12.1-23H39.4z"/>
		<path class="st3" d="M57.6,58.4l6.1,11.7l6.1-11.7l-6.1-11.7l0,0L57.6,58.4L57.6,58.4z"/>
		<path class="st2" d="M57.6,58.4l-6.1-11.7h0l6.1-11.7l6.1,11.7l0,0L57.6,58.4L57.6,58.4z"/>
		<path class="st4" d="M69.8,58.4L76,46.8l-6.1-11.7l0,0l-6.1,11.7l0,0C63.7,46.8,69.8,58.4,69.8,58.4z"/>
		<path class="st5" d="M63.7,23.4l-6.1,11.7l6.1,11.7l0,0l6.1-11.7l0,0L63.7,23.4L63.7,23.4z"/>
		<path class="st2" d="M100.3,0.4L76,46.8l-6.1-11.7L88.1,0.4H100.3z"/>
		<path class="st1" d="M27.1,0.4l24.4,46.4l6.1-11.7L39.4,0.4H27.1z"/>
		<path class="st2" d="M37.2,84.9h21.6V89H37.2V84.9z M37.2,98.3h21.6v4.1H37.2V98.3z M37.2,111.2h21.6v4.1H37.2V111.2z M73.2,84.9
			v26.3h19.1v4.1H68.6V84.9H73.2z M94.6,100.2c0-4,1.6-7.9,4.6-10.7c2.9-2.9,6.9-4.5,11-4.5c4.1-0.1,8,1.6,10.9,4.5
			c3,2.8,4.6,6.7,4.6,10.8c0.1,4.1-1.6,8-4.6,10.8c-5.9,5.7-15.2,6-21.4,0.5C96.3,108.8,94.6,104.9,94.6,100.2L94.6,100.2z
			 M99.1,100.3c-0.1,6.1,4.7,11.1,10.8,11.2c3,0.1,5.9-1.1,8-3.2c4.3-4.4,4.3-11.4,0-15.8c-4.3-4.3-11.3-4.3-15.6,0
			C100.2,94.5,99.1,97.3,99.1,100.3C99.1,100.3,99.1,100.3,99.1,100.3z M31.5,85.4l-15.3,30.2L0.9,85.4h4.7l10.6,21l10.6-21H31.5z"
			/>
	</g>
</g>
</svg>
